0
SECTION
2
HEADER
9
$INSUNITS
70
4
9
$ACADVER
1
AC1014
9
$HANDSEED
5
FFFF
0
ENDSEC
0
SECTION
2
TABLES
0
TABLE
2
VPORT
5
8
100
AcDbSymbolTable
0
ENDTAB
0
TABLE
2
LTYPE
5
5
100
AcDbSymbolTable
0
LTYPE
5
14
100
AcDbSymbolTableRecord
100
AcDbLinetypeTableRecord
2
BYBLOCK
70
0
0
LTYPE
5
15
100
AcDbSymbolTableRecord
100
AcDbLinetypeTableRecord
2
BYLAYER
70
0
0
ENDTAB
0
TABLE
2
LAYER
5
2
100
AcDbSymbolTable
70
2
0
LAYER
5
50
100
AcDbSymbolTableRecord
100
AcDbLayerTableRecord
2
0
70
0
6
CONTINUOUS
0
ENDTAB
0
TABLE
2
STYLE
5
3
100
AcDbSymbolTable
70
1
0
STYLE
5
11
100
AcDbSymbolTableRecord
100
AcDbTextStyleTableRecord
2
STANDARD
70
0
0
ENDTAB
0
TABLE
2
VIEW
5
6
100
AcDbSymbolTable
70
0
0
ENDTAB
0
TABLE
2
UCS
5
7
100
AcDbSymbolTable
70
0
0
ENDTAB
0
TABLE
2
APPID
5
9
100
AcDbSymbolTable
70
2
0
APPID
5
12
100
AcDbSymbolTableRecord
100
AcDbRegAppTableRecord
2
ACAD
70
0
0
ENDTAB
0
TABLE
2
DIMSTYLE
5
A
100
AcDbSymbolTable
70
1
0
ENDTAB
0
TABLE
2
BLOCK_RECORD
5
1
100
AcDbSymbolTable
70
1
0
BLOCK_RECORD
5
1F
100
AcDbSymbolTableRecord
100
AcDbBlockTableRecord
2
*MODEL_SPACE
0
BLOCK_RECORD
5
1B
100
AcDbSymbolTableRecord
100
AcDbBlockTableRecord
2
*PAPER_SPACE
0
ENDTAB
0
ENDSEC
0
SECTION
2
BLOCKS
0
BLOCK
5
20
100
AcDbEntity
100
AcDbBlockBegin
2
*MODEL_SPACE
0
ENDBLK
5
21
100
AcDbEntity
100
AcDbBlockEnd
0
BLOCK
5
1C
100
AcDbEntity
100
AcDbBlockBegin
2
*PAPER_SPACE
0
ENDBLK
5
1D
100
AcDbEntity
100
AcDbBlockEnd
0
ENDSEC
0
SECTION
2
ENTITIES
0
CIRCLE
5
100
100
AcDbEntity
8
0
100
AcDbCircle
10
-186.42245378688003
20
10.07710770067642
30
0
40
2.2500000000000142
210
0
220
-0
230
1
0
CIRCLE
5
101
100
AcDbEntity
8
0
100
AcDbCircle
10
-125
20
6.0000000000000009
30
0
40
2.2499999999999964
210
0
220
-0
230
1
0
CIRCLE
5
102
100
AcDbEntity
8
0
100
AcDbCircle
10
-199.23646636741512
20
39.399472570957805
30
0
40
2.2500000000000142
210
0
220
-0
230
1
0
CIRCLE
5
103
100
AcDbEntity
8
0
100
AcDbCircle
10
-75
20
6.0000000000000009
30
0
40
2.2499999999999964
210
0
220
-0
230
1
0
CIRCLE
5
104
100
AcDbEntity
8
0
100
AcDbCircle
10
-95.694870736092113
20
75.250285420487373
30
0
40
2.2499999999999964
210
0
220
-0
230
1
0
CIRCLE
5
105
100
AcDbEntity
8
0
100
AcDbCircle
10
-69.633699199679427
20
93.505293648658636
30
0
40
2.2499999999999964
210
0
220
-0
230
1
0
CIRCLE
5
106
100
AcDbEntity
8
0
100
AcDbCircle
10
-51.466941435273277
20
79.375584845643772
30
0
40
2.2499999999999964
210
0
220
-0
230
1
0
CIRCLE
5
107
100
AcDbEntity
8
0
100
AcDbCircle
10
-48.325487532621153
20
7.9999999999999885
30
0
40
2.2500000000000053
210
0
220
-0
230
1
0
CIRCLE
5
108
100
AcDbEntity
8
0
100
AcDbCircle
10
-176.83186982797798
20
133.70357770042062
30
0
40
2.2499999999999787
210
0
220
-0
230
1
0
CIRCLE
5
109
100
AcDbEntity
8
0
100
AcDbCircle
10
-137.65937202610928
20
193.45186856001635
30
0
40
2.2499999999999964
210
0
220
-0
230
1
0
CIRCLE
5
110
100
AcDbEntity
8
0
100
AcDbCircle
10
62.149111664874383
20
38.045178630068804
30
0
40
2.2499999999999964
210
0
220
-0
230
1
0
CIRCLE
5
111
100
AcDbEntity
8
0
100
AcDbCircle
10
51.674512467378847
20
8
30
0
40
2.2499999999999964
210
0
220
-0
230
1
0
LWPOLYLINE
5
112
100
AcDbEntity
8
0
100
AcDbPolyline
90
14
70
1
43
0.0
10
57.619305770006775
20
3.3540186188152243
42
-0.31904455743583338
10
52.897998187059763
20
5.5511151231257827e-15
10
-201.85395825167873
20
-3.9968028886505635e-14
42
-0.41421356237309331
10
-211.85395825167876
20
10.000000000000009
10
-211.8539582516787
20
69.074433031172049
42
-0.091777088677442914
10
-211.52264177737021
20
70.864235851858382
10
-170.22578268654632
20
178.58669749497983
42
-0.152954521258862
10
-168.37040242083958
20
180.93033449693027
10
-136.59763118308652
20
202.55552918644625
42
-0.41421356237309442
10
-129.65088810046501
20
201.23539262379416
10
-56.64174464573663
20
93.966864106175493
42
0.15735586410631452
10
-54.217585477176584
20
92.081405864913393
10
67.847705981907069
20
47.677398304648065
42
-0.41028281554767593
10
70.859732910777382
20
41.33265542221649
0
LWPOLYLINE
5
113
100
AcDbEntity
8
0
100
AcDbPolyline
90
10
70
1
43
0.0
10
-139.76595893345154
20
185.88334578815477
10
-158.51108097285777
20
173.12503425946974
42
0.15295452125886611
10
-160.3664612385646
20
170.7813972575193
10
-172.20852068315355
20
139.89149854900595
42
0.3404521137076697
10
-170.46250177145873
20
134.04484577372534
10
-99.280809876529318
20
82.763626504049796
42
0.31904455743583082
10
-93.489548279449025
20
82.725216839444897
10
-77.226572410587949
20
94.116905731320145
42
0.41028281554767759
10
-75.961729571034795
20
101.02546861050405
10
-132.81921585083009
20
184.5632092255027
42
0.41421356237309559
0
LWPOLYLINE
5
114
100
AcDbEntity
8
0
100
AcDbPolyline
90
8
70
1
43
0.0
10
-60.782052573196751
20
18.276806928530771
10
-67.487919637091153
20
43.66646622175768
42
0.1737861540290703
10
-69.399483406948107
20
46.446509247821226
10
-85.976684001986015
20
58.389173659989922
42
0.35984470873756969
10
-92.334405528004467
20
57.965556977726358
10
-131.8205171394805
20
20.633233272330745
42
0.67836259037994906
10
-128.38546022745868
20
12.000000000000004
10
-65.616280957050364
20
12.000000000000018
42
0.49203390374612593
0
LWPOLYLINE
5
115
100
AcDbEntity
8
0
100
AcDbPolyline
90
10
70
1
43
0.0
10
-48.752112098044904
20
72.003343190890121
10
-56.216801581576405
20
51.483134598857674
42
0.15295452125886697
10
-56.352268464183211
20
48.497047016250214
10
-47.696102377550389
20
15.723193071469264
42
0.34045211370766865
10
-42.861873993696797
20
12.00000000000002
10
44.373193836003331
20
12.000000000000028
42
0.31904455743583271
10
49.094501418950358
20
15.354018618815255
10
55.630974798393247
20
34.103137949607131
42
0.41028281554767637
10
52.618947869522906
20
40.44788083203872
10
-42.344069942721411
20
74.99282403806022
42
0.41421356237309437
0
LWPOLYLINE
5
116
100
AcDbEntity
8
0
100
AcDbPolyline
90
10
70
1
43
0.0
10
-104.15088226322752
20
71.482358456172989
10
-172.7623528966763
20
120.91192069757611
42
0.49203390374612588
10
-180.35370103636453
20
118.64487356366814
10
-199.52736346282421
20
68.630558655360531
42
0.19701047584608855
10
-199.44029944811416
20
64.838566368965729
10
-177.6596526580546
20
14.997810534291524
42
0.29808654998234285
10
-173.07803314707314
20
12.000000000000007
10
-160.40821933081696
20
12.000000000000002
42
0.19163761839283899
10
-156.97316241879514
20
13.366766727669255
10
-103.6384899652024
20
63.792275229247934
42
0.47075617322269531
0
ENDSEC
0
SECTION
2
OBJECTS
0
DICTIONARY
5
C
100
AcDbDictionary
3
ACAD_GROUP
350
D
3
ACAD_MLINESTYLE
350
17
0
DICTIONARY
5
D
100
AcDbDictionary
0
DICTIONARY
5
1A
330
C
100
AcDbDictionary
0
DICTIONARY
5
17
100
AcDbDictionary
0
ENDSEC
0
EOF
