<svg id="_0" data-name="0" xmlns="http://www.w3.org/2000/svg" viewBox="0 0 20376.25 14647.13">
  <defs>
    <style>
      .cls-1 {
        fill: none;
        stroke: #000;
        stroke-linecap: round;
        stroke-linejoin: round;
        stroke-width: 0.71px;
      }
    </style>
  </defs>
  <title>eurorackAcrylic</title>
  <g id="CIRCLE">
    <path class="cls-1" d="M-7558.4,7137.64a162,162,0,0,1,162-162,162,162,0,0,1,162,162,162,162,0,0,1-162,162,162,162,0,0,1-162-162Z" transform="translate(9227.82 6783.59)"/>
  </g>
  <g id="CIRCLE-2" data-name="CIRCLE">
    <path class="cls-1" d="M-3136,7431.19a162,162,0,0,1,162-162,162,162,0,0,1,162,162,162,162,0,0,1-162,162,162,162,0,0,1-162-162Z" transform="translate(9227.82 6783.59)"/>
  </g>
  <g id="CIRCLE-3" data-name="CIRCLE">
    <path class="cls-1" d="M-8481,5026.43a162,162,0,0,1,162-162,162,162,0,0,1,162,162,162,162,0,0,1-162,162,162,162,0,0,1-162-162Z" transform="translate(9227.82 6783.59)"/>
  </g>
  <g id="CIRCLE-4" data-name="CIRCLE">
    <path class="cls-1" d="M464,7431.19a162,162,0,1,1,162,162,162,162,0,0,1-162-162Z" transform="translate(9227.82 6783.59)"/>
  </g>
  <g id="CIRCLE-5" data-name="CIRCLE">
    <path class="cls-1" d="M-1026,2445.17a162,162,0,0,1,162-162,162,162,0,0,1,162,162,162,162,0,0,1-162,162,162,162,0,0,1-162-162Z" transform="translate(9227.82 6783.59)"/>
  </g>
  <g id="CIRCLE-6" data-name="CIRCLE">
    <path class="cls-1" d="M850.39,1130.81a162,162,0,1,1,162,162,162,162,0,0,1-162-162Z" transform="translate(9227.82 6783.59)"/>
  </g>
  <g id="CIRCLE-7" data-name="CIRCLE">
    <path class="cls-1" d="M2158.4,2148.15a162,162,0,1,1,162,162,162,162,0,0,1-162-162Z" transform="translate(9227.82 6783.59)"/>
  </g>
  <g id="CIRCLE-8" data-name="CIRCLE">
    <path class="cls-1" d="M2384.59,7287.19a162,162,0,1,1,162,162,162,162,0,0,1-162-162Z" transform="translate(9227.82 6783.59)"/>
  </g>
  <g id="CIRCLE-9" data-name="CIRCLE">
    <path class="cls-1" d="M-6867.87-1763.47a162,162,0,0,1,162-162,162,162,0,0,1,162,162,162,162,0,0,1-162,162,162,162,0,0,1-162-162Z" transform="translate(9227.82 6783.59)"/>
  </g>
  <g id="CIRCLE-10" data-name="CIRCLE">
    <path class="cls-1" d="M-4047.45-6065.35a162,162,0,0,1,162-162,162,162,0,0,1,162,162,162,162,0,0,1-162,162,162,162,0,0,1-162-162Z" transform="translate(9227.82 6783.59)"/>
  </g>
  <g id="CIRCLE-11" data-name="CIRCLE">
    <path class="cls-1" d="M10338.76,5123.94a162,162,0,1,1,162,162,162,162,0,0,1-162-162Z" transform="translate(9227.82 6783.59)"/>
  </g>
  <g id="CIRCLE-12" data-name="CIRCLE">
    <path class="cls-1" d="M9584.59,7287.19a162,162,0,1,1,162,162,162,162,0,0,1-162-162Z" transform="translate(9227.82 6783.59)"/>
  </g>
  <g id="LWPOLYLINE">
    <path class="cls-1" d="M10174.61,7621.7a360,360,0,0,1-339.93,241.49H-8507.46c-397.65,0-720-322.36-720-720V2889.83A360,360,0,0,1-9203.61,2761l2973.37-7756a360,360,0,0,1,133.59-168.75l2287.64-1557c164.37-111.87,388.3-69.31,500.17,95.05L1947.81,1097.57a360,360,0,0,0,174.54,135.76l8788.71,3197.09c185.07,67.32,281.69,270.86,216.86,456.82Z" transform="translate(9227.82 6783.59)"/>
  </g>
  <g id="LWPOLYLINE-2" data-name="LWPOLYLINE">
    <path class="cls-1" d="M-4037.13-5520.41l-1349.65,918.6a360,360,0,0,0-133.58,168.74L-6373-2209a360,360,0,0,0,125.71,421L-1122.2,1904.21a360,360,0,0,0,417,2.76l1170.94-820.2c161.3-113,201.87-334.61,91.07-497.42L-3537-5425.36C-3648.83-5589.73-3872.76-5632.28-4037.13-5520.41Z" transform="translate(9227.82 6783.59)"/>
  </g>
  <g id="LWPOLYLINE-3" data-name="LWPOLYLINE">
    <path class="cls-1" d="M1649.71,6547.26,1166.89,4719.2A360,360,0,0,0,1029.26,4519L-164.3,3659.17a360,360,0,0,0-457.76,30.5l-2843,2687.93c-144.47,136.59-150.86,364.44-14.27,508.91a360,360,0,0,0,261.6,112.68H1301.65c198.82,0,360-161.18,360-360A359.72,359.72,0,0,0,1649.71,6547.26Z" transform="translate(9227.82 6783.59)"/>
  </g>
  <g id="LWPOLYLINE-4" data-name="LWPOLYLINE">
    <path class="cls-1" d="M2515.87,2679,1978.41,4156.4a360,360,0,0,0-9.75,215L2591.9,6731.12A360,360,0,0,0,2940,6999.19H9220.89a360,360,0,0,0,339.93-241.49l470.63-1349.94c64.83-186-31.79-389.5-216.87-456.82L2977.25,2463.71C2790.4,2395.74,2583.84,2492.1,2515.87,2679Z" transform="translate(9227.82 6783.59)"/>
  </g>
  <g id="LWPOLYLINE-5" data-name="LWPOLYLINE">
    <path class="cls-1" d="M-1472.84,2716.46l-4940-3558.93c-161.32-116.22-386.31-79.66-502.52,81.66a360,360,0,0,0-44.06,81.57l-1380.5,3601a360,360,0,0,0,6.27,273l1568.21,3588.54a360,360,0,0,0,329.87,215.84h912.23A360,360,0,0,0-5276,6900.78l3840.1-3630.64c144.47-136.59,150.86-364.44,14.27-508.91A360,360,0,0,0-1472.84,2716.46Z" transform="translate(9227.82 6783.59)"/>
  </g>
</svg>
