0
SECTION
2
HEADER
9
$INSUNITS
70
4
9
$ACADVER
1
AC1014
9
$HANDSEED
5
FFFF
0
ENDSEC
0
SECTION
2
TABLES
0
TABLE
2
VPORT
5
8
100
AcDbSymbolTable
0
ENDTAB
0
TABLE
2
LTYPE
5
5
100
AcDbSymbolTable
0
LTYPE
5
14
100
AcDbSymbolTableRecord
100
AcDbLinetypeTableRecord
2
BYBLOCK
70
0
0
LTYPE
5
15
100
AcDbSymbolTableRecord
100
AcDbLinetypeTableRecord
2
BYLAYER
70
0
0
ENDTAB
0
TABLE
2
LAYER
5
2
100
AcDbSymbolTable
70
2
0
LAYER
5
50
100
AcDbSymbolTableRecord
100
AcDbLayerTableRecord
2
0
70
0
6
CONTINUOUS
0
ENDTAB
0
TABLE
2
STYLE
5
3
100
AcDbSymbolTable
70
1
0
STYLE
5
11
100
AcDbSymbolTableRecord
100
AcDbTextStyleTableRecord
2
STANDARD
70
0
0
ENDTAB
0
TABLE
2
VIEW
5
6
100
AcDbSymbolTable
70
0
0
ENDTAB
0
TABLE
2
UCS
5
7
100
AcDbSymbolTable
70
0
0
ENDTAB
0
TABLE
2
APPID
5
9
100
AcDbSymbolTable
70
2
0
APPID
5
12
100
AcDbSymbolTableRecord
100
AcDbRegAppTableRecord
2
ACAD
70
0
0
ENDTAB
0
TABLE
2
DIMSTYLE
5
A
100
AcDbSymbolTable
70
1
0
ENDTAB
0
TABLE
2
BLOCK_RECORD
5
1
100
AcDbSymbolTable
70
1
0
BLOCK_RECORD
5
1F
100
AcDbSymbolTableRecord
100
AcDbBlockTableRecord
2
*MODEL_SPACE
0
BLOCK_RECORD
5
1B
100
AcDbSymbolTableRecord
100
AcDbBlockTableRecord
2
*PAPER_SPACE
0
ENDTAB
0
ENDSEC
0
SECTION
2
BLOCKS
0
BLOCK
5
20
100
AcDbEntity
100
AcDbBlockBegin
2
*MODEL_SPACE
0
ENDBLK
5
21
100
AcDbEntity
100
AcDbBlockEnd
0
BLOCK
5
1C
100
AcDbEntity
100
AcDbBlockBegin
2
*PAPER_SPACE
0
ENDBLK
5
1D
100
AcDbEntity
100
AcDbBlockEnd
0
ENDSEC
0
SECTION
2
ENTITIES
0
LWPOLYLINE
5
100
100
AcDbEntity
8
0
100
AcDbPolyline
90
14
70
1
43
0.0
10
196.71999999999667
20
241.19727657387514
42
0.41421356237308049
10
201.7199999999965
20
246.19727657387514
10
201.71999999999684
20
299.65727657221117
42
0.41421356237311169
10
196.7199999999967
20
304.65727657221117
10
66.27999835962396
20
304.65727657220646
42
0.41421386265711824
10
61.279998359626774
20
299.65727144603795
10
61.280017500762057
20
280.98724946399926
42
-0.41420261992606566
10
56.280209426911007
20
275.98724434151438
10
-199.51589851670929
20
275.97742554926066
42
0.27810830514013851
10
-202.18140000000324
20
271.55587416139946
10
-202.18140000000321
20
246.18757657220485
42
0.41421356237309087
10
-197.18140000000321
20
241.18757657220488
10
-180.34133541282563
20
241.18757657220496
10
195.12012917439364
20
241.19727657387506
0
CIRCLE
5
101
100
AcDbEntity
8
0
100
AcDbCircle
10
-8.8800000000029904
20
269.38727657220539
30
8.8817841970012523e-15
40
1.6000000000000028
210
-7.8836334344184219e-31
220
-5.5511151231257827e-17
230
1
0
CIRCLE
5
102
100
AcDbEntity
8
0
100
AcDbCircle
10
143.5299999999956
20
282.81727663132068
30
1.7763568394002505e-14
40
3.2500000000000111
210
-3.1559411826632165e-30
220
5.5511151231257827e-17
230
1
0
CIRCLE
5
103
100
AcDbEntity
8
0
100
AcDbCircle
10
119.46999999999727
20
263.0372766313198
30
-1.7763568394002505e-14
40
3.2499999999999933
210
0
220
-0
230
1
0
CIRCLE
5
104
100
AcDbEntity
8
0
100
AcDbCircle
10
143.46999999999733
20
263.03727663132003
30
1.7763568394002505e-14
40
3.2499999999999933
210
0
220
-0
230
1
0
CIRCLE
5
105
100
AcDbEntity
8
0
100
AcDbCircle
10
165.5299999999956
20
282.81727663132193
30
1.7763568394002505e-14
40
3.2499999999999933
210
0
220
-0
230
1
0
CIRCLE
5
106
100
AcDbEntity
8
0
100
AcDbCircle
10
165.46999999999738
20
263.03727663132014
30
0
40
3.2499999999999933
210
0
220
-0
230
1
0
CIRCLE
5
107
100
AcDbEntity
8
0
100
AcDbCircle
10
187.46999999999733
20
263.03727663132054
30
1.7763568394002505e-14
40
3.2499999999999933
210
0
220
-0
230
1
0
CIRCLE
5
108
100
AcDbEntity
8
0
100
AcDbCircle
10
187.52999999999577
20
282.81727663132409
30
3.5527136788005009e-14
40
3.2499999999999933
210
0
220
-0
230
1
0
CIRCLE
5
109
100
AcDbEntity
8
0
100
AcDbCircle
10
-187.93140000000352
20
254.13757663131867
30
0
40
3.2499999999999933
210
0
220
-0
230
1
0
CIRCLE
5
110
100
AcDbEntity
8
0
100
AcDbCircle
10
127.11999999999703
20
247.79727657220607
30
1.7763568394002505e-14
40
1.6000000000000016
210
-2.7610131682735413e-30
220
1.9593430777002798e-44
230
1
0
CIRCLE
5
111
100
AcDbEntity
8
0
100
AcDbCircle
10
111.87999999999705
20
247.79727657220604
30
1.7763568394002505e-14
40
1.6000000000000016
210
-2.7610131682735413e-30
220
1.9593430777002798e-44
230
1
0
CIRCLE
5
112
100
AcDbEntity
8
0
100
AcDbCircle
10
-180.3414000000032
20
247.78757657220496
30
8.8817841970012523e-15
40
1.6000000000000016
210
-2.7610131682735413e-30
220
1.9593430777002798e-44
230
1
0
CIRCLE
5
113
100
AcDbEntity
8
0
100
AcDbCircle
10
-171.58140000000316
20
247.78757657220518
30
8.8817841970012523e-15
40
1.6000000000000016
210
-2.7610131682735413e-30
220
1.9593430777002798e-44
230
1
0
CIRCLE
5
114
100
AcDbEntity
8
0
100
AcDbCircle
10
-156.3414000000032
20
247.78757657220524
30
1.7763568394002505e-14
40
1.6000000000000016
210
-2.7610131682735413e-30
220
1.9593430777002798e-44
230
1
0
CIRCLE
5
115
100
AcDbEntity
8
0
100
AcDbCircle
10
-147.58140000000327
20
247.7875765722051
30
-8.8817841970012523e-15
40
1.6000000000000016
210
-3.5498740734945531e-30
220
2.5191553856146454e-44
230
1
0
CIRCLE
5
116
100
AcDbEntity
8
0
100
AcDbCircle
10
-132.34140000000329
20
247.78757657220518
30
8.8817841970012523e-15
40
1.6000000000000016
210
-2.7610131682735413e-30
220
1.9593430777002798e-44
230
1
0
CIRCLE
5
117
100
AcDbEntity
8
0
100
AcDbCircle
10
195.11999999999654
20
247.79727657220656
30
2.6645352591003757e-14
40
1.6000000000000016
210
-2.7610131682735413e-30
220
1.9593430777002798e-44
230
1
0
CIRCLE
5
118
100
AcDbEntity
8
0
100
AcDbCircle
10
195.11999999999642
20
269.38727657220636
30
-1.7763568394002505e-14
40
1.6000000000000016
210
-2.7610131682735413e-30
220
1.9593430777002798e-44
230
1
0
CIRCLE
5
119
100
AcDbEntity
8
0
100
AcDbCircle
10
195.11999999999637
20
276.46727657221118
30
0
40
1.6000000000000016
210
-2.7610131682735413e-30
220
1.9593430777002798e-44
230
1
0
CIRCLE
5
120
100
AcDbEntity
8
0
100
AcDbCircle
10
195.11999999999472
20
298.05727657221109
30
1.7763568394002505e-14
40
1.6000000000000016
210
-2.7610131682735413e-30
220
1.9593430777002798e-44
230
1
0
CIRCLE
5
121
100
AcDbEntity
8
0
100
AcDbCircle
10
179.87999999999471
20
298.05727657221001
30
1.7763568394002505e-14
40
1.6000000000000016
210
-2.7610131682735413e-30
220
1.9593430777002798e-44
230
1
0
CIRCLE
5
122
100
AcDbEntity
8
0
100
AcDbCircle
10
173.11999999999475
20
298.05727657220848
30
0
40
1.6000000000000016
210
-2.7610131682735413e-30
220
1.9593430777002798e-44
230
1
0
CIRCLE
5
123
100
AcDbEntity
8
0
100
AcDbCircle
10
157.87999999999471
20
298.05727657220746
30
1.7763568394002505e-14
40
1.6000000000000016
210
-2.7610131682735413e-30
220
1.9593430777002798e-44
230
1
0
CIRCLE
5
124
100
AcDbEntity
8
0
100
AcDbCircle
10
151.11999999999497
20
298.05727657220797
30
3.5527136788005009e-14
40
1.6000000000000016
210
-3.1549460591048776e-30
220
-5.5511151231257839e-17
230
1
0
CIRCLE
5
125
100
AcDbEntity
8
0
100
AcDbCircle
10
135.87999999999499
20
298.05727657220677
30
1.7763568394002505e-14
40
1.6000000000000016
210
-3.1549460591048776e-30
220
-5.5511151231257839e-17
230
1
0
CIRCLE
5
126
100
AcDbEntity
8
0
100
AcDbCircle
10
127.11999999999875
20
298.0572765722012
30
1.7763568394002505e-14
40
1.6000000000000016
210
-2.7610131682735413e-30
220
1.9593430777002798e-44
230
1
0
CIRCLE
5
127
100
AcDbEntity
8
0
100
AcDbCircle
10
111.87999999999874
20
298.05727657220223
30
1.7763568394002505e-14
40
1.6000000000000016
210
-2.7610131682735413e-30
220
1.9593430777002798e-44
230
1
0
CIRCLE
5
128
100
AcDbEntity
8
0
100
AcDbCircle
10
105.11999999999873
20
298.05727657220223
30
1.7763568394002505e-14
40
1.6000000000000016
210
-2.7610131682735413e-30
220
1.9593430777002798e-44
230
1
0
CIRCLE
5
129
100
AcDbEntity
8
0
100
AcDbCircle
10
89.879999999998716
20
298.05727657220325
30
0
40
1.6000000000000016
210
-2.7610131682735413e-30
220
1.9593430777002798e-44
230
1
0
CIRCLE
5
130
100
AcDbEntity
8
0
100
AcDbCircle
10
83.119999999998868
20
298.05727657220484
30
0
40
1.6000000000000016
210
-2.7610131682735413e-30
220
1.959343077700279e-44
230
1
0
CIRCLE
5
131
100
AcDbEntity
8
0
100
AcDbCircle
10
67.879999999998844
20
298.05727657220581
30
1.7763568394002505e-14
40
1.6000000000000016
210
-2.7610131682735413e-30
220
1.959343077700279e-44
230
1
0
CIRCLE
5
132
100
AcDbEntity
8
0
100
AcDbCircle
10
67.879999999997466
20
276.46727657220583
30
1.7763568394002505e-14
40
1.6000000000000016
210
-2.7610131682735413e-30
220
1.959343077700279e-44
230
1
0
CIRCLE
5
133
100
AcDbEntity
8
0
100
AcDbCircle
10
67.879999999997111
20
269.38727657220568
30
8.8817841970012523e-15
40
1.6000000000000016
210
-3.9438069643258898e-30
220
-5.5511151231257839e-17
230
1
0
CIRCLE
5
134
100
AcDbEntity
8
0
100
AcDbCircle
10
57.119999999997013
20
269.38727657220585
30
-8.8817841970012523e-15
40
1.6000000000000016
210
-2.7610131682735413e-30
220
1.9593430777002798e-44
230
1
0
CIRCLE
5
135
100
AcDbEntity
8
0
100
AcDbCircle
10
41.879999999996983
20
269.38727657220585
30
-8.8817841970012523e-15
40
1.6000000000000016
210
-2.7610131682735413e-30
220
1.9593430777002798e-44
230
1
0
CIRCLE
5
136
100
AcDbEntity
8
0
100
AcDbCircle
10
35.119999999996907
20
269.38727657220556
30
8.8817841970012523e-15
40
1.6000000000000016
210
-2.7610131682735413e-30
220
1.9593430777002798e-44
230
1
0
CIRCLE
5
137
100
AcDbEntity
8
0
100
AcDbCircle
10
19.879999999996894
20
269.38727657220545
30
1.7763568394002505e-14
40
1.6000000000000016
210
-3.5498740734945531e-30
220
2.5191553856146454e-44
230
1
0
CIRCLE
5
138
100
AcDbEntity
8
0
100
AcDbCircle
10
13.119999999997003
20
269.38727657220568
30
-8.8817841970012523e-15
40
1.6000000000000016
210
-2.7610131682735413e-30
220
1.9593430777002798e-44
230
1
0
CIRCLE
5
139
100
AcDbEntity
8
0
100
AcDbCircle
10
-2.120000000003003
20
269.38727657220562
30
-1.7763568394002505e-14
40
1.6000000000000012
210
-3.5498740734945531e-30
220
2.5191553856146464e-44
230
1
0
CIRCLE
5
140
100
AcDbEntity
8
0
100
AcDbCircle
10
-132.34140000000335
20
269.3775765722051
30
1.7763568394002505e-14
40
1.6000000000000016
210
-2.7610131682735413e-30
220
1.9593430777002798e-44
230
1
0
CIRCLE
5
141
100
AcDbEntity
8
0
100
AcDbCircle
10
-147.58140000000333
20
269.37757657220504
30
8.8817841970012523e-15
40
1.6000000000000016
210
-2.7610131682735413e-30
220
1.9593430777002798e-44
230
1
0
CIRCLE
5
142
100
AcDbEntity
8
0
100
AcDbCircle
10
-156.34140000000326
20
269.3775765722051
30
8.8817841970012523e-15
40
1.6000000000000016
210
-3.5498740734945531e-30
220
2.5191553856146454e-44
230
1
0
CIRCLE
5
143
100
AcDbEntity
8
0
100
AcDbCircle
10
-171.58140000000319
20
269.3775765722051
30
-8.8817841970012523e-15
40
1.6000000000000016
210
-2.7610131682735413e-30
220
1.9593430777002798e-44
230
1
0
CIRCLE
5
144
100
AcDbEntity
8
0
100
AcDbCircle
10
-180.34140000000332
20
269.37757657220487
30
-8.8817841970012523e-15
40
1.6000000000000016
210
-2.7610131682735413e-30
220
1.9593430777002798e-44
230
1
0
CIRCLE
5
145
100
AcDbEntity
8
0
100
AcDbCircle
10
-112.12000000000322
20
247.79727657220516
30
8.8817841970012523e-15
40
1.6000000000000016
210
-2.7610131682735413e-30
220
1.9593430777002798e-44
230
1
0
CIRCLE
5
146
100
AcDbEntity
8
0
100
AcDbCircle
10
-96.880000000003207
20
247.79727657220516
30
-8.8817841970012523e-15
40
1.6000000000000016
210
-2.7610131682735413e-30
220
1.9593430777002798e-44
230
1
0
CIRCLE
5
147
100
AcDbEntity
8
0
100
AcDbCircle
10
-90.120000000003145
20
247.79727657220508
30
8.8817841970012523e-15
40
1.6000000000000016
210
-3.1549460591048776e-30
220
-5.5511151231257839e-17
230
1
0
CIRCLE
5
148
100
AcDbEntity
8
0
100
AcDbCircle
10
-74.880000000003136
20
247.79727657220519
30
2.6645352591003757e-14
40
1.6000000000000016
210
-3.1549460591048776e-30
220
-5.5511151231257839e-17
230
1
0
CIRCLE
5
149
100
AcDbEntity
8
0
100
AcDbCircle
10
-68.120000000003287
20
247.79727657220485
30
0
40
1.6000000000000016
210
-2.7610131682735413e-30
220
1.9593430777002798e-44
230
1
0
CIRCLE
5
150
100
AcDbEntity
8
0
100
AcDbCircle
10
-52.880000000003271
20
247.79727657220491
30
8.8817841970012523e-15
40
1.6000000000000016
210
-2.7610131682735413e-30
220
1.9593430777002798e-44
230
1
0
CIRCLE
5
151
100
AcDbEntity
8
0
100
AcDbCircle
10
-46.12000000000301
20
247.79727657220533
30
0
40
1.6000000000000016
210
-2.7610131682735413e-30
220
1.9593430777002798e-44
230
1
0
CIRCLE
5
152
100
AcDbEntity
8
0
100
AcDbCircle
10
-30.880000000002987
20
247.79727657220548
30
3.5527136788005009e-14
40
1.6000000000000059
210
-1.1827937960523483e-30
220
-5.5511151231257839e-17
230
1
0
CIRCLE
5
153
100
AcDbEntity
8
0
100
AcDbCircle
10
-24.120000000002943
20
247.79727657220533
30
1.7763568394002505e-14
40
1.6000000000000016
210
-2.7610131682735413e-30
220
1.9593430777002798e-44
230
1
0
CIRCLE
5
154
100
AcDbEntity
8
0
100
AcDbCircle
10
-8.8800000000029318
20
247.79727657220542
30
8.8817841970012523e-15
40
1.6000000000000028
210
-7.8836334344184219e-31
220
-5.5511151231257827e-17
230
1
0
CIRCLE
5
155
100
AcDbEntity
8
0
100
AcDbCircle
10
-2.1200000000029435
20
247.7972765722057
30
2.6645352591003757e-14
40
1.6000000000000012
210
-3.5498740734945531e-30
220
2.5191553856146464e-44
230
1
0
CIRCLE
5
156
100
AcDbEntity
8
0
100
AcDbCircle
10
13.119999999997061
20
247.79727657220573
30
-1.7763568394002505e-14
40
1.6000000000000016
210
-2.7610131682735413e-30
220
1.9593430777002798e-44
230
1
0
CIRCLE
5
157
100
AcDbEntity
8
0
100
AcDbCircle
10
19.879999999996951
20
247.79727657220562
30
1.7763568394002505e-14
40
1.6000000000000016
210
-2.7610131682735413e-30
220
1.9593430777002798e-44
230
1
0
CIRCLE
5
158
100
AcDbEntity
8
0
100
AcDbCircle
10
35.119999999996963
20
247.79727657220562
30
1.7763568394002505e-14
40
1.6000000000000016
210
-3.5498740734945531e-30
220
2.5191553856146454e-44
230
1
0
CIRCLE
5
159
100
AcDbEntity
8
0
100
AcDbCircle
10
41.879999999997047
20
247.79727657220599
30
1.7763568394002505e-14
40
1.6000000000000016
210
-2.7610131682735413e-30
220
1.9593430777002798e-44
230
1
0
CIRCLE
5
160
100
AcDbEntity
8
0
100
AcDbCircle
10
57.119999999997077
20
247.79727657220593
30
8.8817841970012523e-15
40
1.6000000000000016
210
-2.7610131682735413e-30
220
1.9593430777002798e-44
230
1
0
CIRCLE
5
161
100
AcDbEntity
8
0
100
AcDbCircle
10
67.879999999997167
20
247.79727657220565
30
-8.8817841970012523e-15
40
1.6000000000000016
210
-3.9438069643258898e-30
220
-5.5511151231257839e-17
230
1
0
CIRCLE
5
162
100
AcDbEntity
8
0
100
AcDbCircle
10
83.119999999997191
20
247.7972765722057
30
-8.8817841970012523e-15
40
1.6000000000000016
210
-3.9438069643258898e-30
220
-5.5511151231257839e-17
230
1
0
CIRCLE
5
163
100
AcDbEntity
8
0
100
AcDbCircle
10
83.119999999997134
20
269.38727657220568
30
8.8817841970012523e-15
40
1.6000000000000016
210
-3.9438069643258898e-30
220
-5.5511151231257839e-17
230
1
0
CIRCLE
5
164
100
AcDbEntity
8
0
100
AcDbCircle
10
89.879999999997167
20
247.7972765722057
30
8.8817841970012523e-15
40
1.6000000000000016
210
-2.7610131682735413e-30
220
1.9593430777002798e-44
230
1
0
CIRCLE
5
165
100
AcDbEntity
8
0
100
AcDbCircle
10
105.11999999999718
20
247.79727657220573
30
1.7763568394002505e-14
40
1.6000000000000016
210
-2.7610131682735413e-30
220
1.9593430777002798e-44
230
1
0
CIRCLE
5
166
100
AcDbEntity
8
0
100
AcDbCircle
10
105.11999999999713
20
269.38727657220562
30
0
40
1.6000000000000016
210
-2.7610131682735413e-30
220
1.9593430777002798e-44
230
1
0
CIRCLE
5
167
100
AcDbEntity
8
0
100
AcDbCircle
10
89.879999999997125
20
269.38727657220562
30
-1.7763568394002505e-14
40
1.6000000000000016
210
-2.7610131682735413e-30
220
1.9593430777002798e-44
230
1
0
CIRCLE
5
168
100
AcDbEntity
8
0
100
AcDbCircle
10
83.119999999997475
20
276.46727657220487
30
0
40
1.6000000000000016
210
-2.7610131682735413e-30
220
1.959343077700279e-44
230
1
0
CIRCLE
5
169
100
AcDbEntity
8
0
100
AcDbCircle
10
89.87999999999731
20
276.46727657220333
30
-1.7763568394002505e-14
40
1.6000000000000016
210
-2.7610131682735413e-30
220
1.9593430777002798e-44
230
1
0
CIRCLE
5
170
100
AcDbEntity
8
0
100
AcDbCircle
10
105.11999999999729
20
276.46727657220225
30
1.7763568394002505e-14
40
1.6000000000000016
210
-3.5498740734945531e-30
220
2.5191553856146454e-44
230
1
0
CIRCLE
5
171
100
AcDbEntity
8
0
100
AcDbCircle
10
127.11999999999735
20
276.46727657220117
30
0
40
1.6000000000000016
210
-2.7610131682735413e-30
220
1.9593430777002798e-44
230
1
0
CIRCLE
5
172
100
AcDbEntity
8
0
100
AcDbCircle
10
111.87999999999734
20
276.46727657220219
30
-1.7763568394002505e-14
40
1.6000000000000016
210
-2.7610131682735413e-30
220
1.9593430777002798e-44
230
1
0
CIRCLE
5
173
100
AcDbEntity
8
0
100
AcDbCircle
10
135.87999999999661
20
276.4672765722068
30
1.7763568394002505e-14
40
1.6000000000000016
210
-3.1549460591048776e-30
220
-5.5511151231257839e-17
230
1
0
CIRCLE
5
174
100
AcDbEntity
8
0
100
AcDbCircle
10
151.11999999999662
20
276.46727657220794
30
0
40
1.6000000000000016
210
-3.9438069643258898e-30
220
-5.5511151231257839e-17
230
1
0
CIRCLE
5
175
100
AcDbEntity
8
0
100
AcDbCircle
10
157.87999999999636
20
276.46727657220737
30
1.7763568394002505e-14
40
1.6000000000000016
210
-2.7610131682735413e-30
220
1.9593430777002798e-44
230
1
0
CIRCLE
5
176
100
AcDbEntity
8
0
100
AcDbCircle
10
173.11999999999642
20
276.46727657220856
30
-1.7763568394002505e-14
40
1.6000000000000016
210
-2.7610131682735413e-30
220
1.9593430777002798e-44
230
1
0
CIRCLE
5
177
100
AcDbEntity
8
0
100
AcDbCircle
10
179.87999999999636
20
276.46727657221004
30
0
40
1.6000000000000016
210
-2.7610131682735413e-30
220
1.9593430777002798e-44
230
1
0
CIRCLE
5
178
100
AcDbEntity
8
0
100
AcDbCircle
10
179.87999999999641
20
269.38727657220636
30
0
40
1.6000000000000016
210
-2.7610131682735413e-30
220
1.9593430777002798e-44
230
1
0
CIRCLE
5
179
100
AcDbEntity
8
0
100
AcDbCircle
10
173.11999999999702
20
269.38727657220619
30
3.5527136788005009e-14
40
1.6000000000000016
210
-2.7610131682735413e-30
220
1.9593430777002798e-44
230
1
0
CIRCLE
5
180
100
AcDbEntity
8
0
100
AcDbCircle
10
157.87999999999701
20
269.38727657220613
30
8.8817841970012523e-15
40
1.6000000000000016
210
-2.7610131682735413e-30
220
1.9593430777002798e-44
230
1
0
CIRCLE
5
181
100
AcDbEntity
8
0
100
AcDbCircle
10
157.87999999999707
20
247.79727657220627
30
8.8817841970012523e-15
40
1.6000000000000016
210
-2.7610131682735413e-30
220
1.9593430777002798e-44
230
1
0
CIRCLE
5
182
100
AcDbEntity
8
0
100
AcDbCircle
10
173.11999999999713
20
247.79727657220627
30
-2.6645352591003757e-14
40
1.6000000000000016
210
-2.7610131682735413e-30
220
1.9593430777002798e-44
230
1
0
CIRCLE
5
183
100
AcDbEntity
8
0
100
AcDbCircle
10
179.87999999999653
20
247.7972765722065
30
8.8817841970012523e-15
40
1.6000000000000016
210
-2.7610131682735413e-30
220
1.9593430777002798e-44
230
1
0
CIRCLE
5
184
100
AcDbEntity
8
0
100
AcDbCircle
10
151.11999999999682
20
269.38727657220653
30
8.8817841970012523e-15
40
1.6000000000000016
210
-2.7610131682735413e-30
220
1.9593430777002798e-44
230
1
0
CIRCLE
5
185
100
AcDbEntity
8
0
100
AcDbCircle
10
151.11999999999688
20
247.7972765722065
30
-8.8817841970012523e-15
40
1.6000000000000016
210
-2.7610131682735413e-30
220
1.9593430777002798e-44
230
1
0
CIRCLE
5
186
100
AcDbEntity
8
0
100
AcDbCircle
10
135.87999999999687
20
247.79727657220656
30
2.6645352591003757e-14
40
1.6000000000000016
210
-2.7610131682735413e-30
220
1.9593430777002798e-44
230
1
0
CIRCLE
5
187
100
AcDbEntity
8
0
100
AcDbCircle
10
-24.120000000003007
20
269.38727657220522
30
8.8817841970012523e-15
40
1.6000000000000016
210
-2.7610131682735413e-30
220
1.9593430777002798e-44
230
1
0
CIRCLE
5
188
100
AcDbEntity
8
0
100
AcDbCircle
10
-30.880000000003047
20
269.38727657220539
30
-8.8817841970012523e-15
40
1.6000000000000059
210
-1.1827937960523483e-30
220
-5.5511151231257839e-17
230
1
0
CIRCLE
5
189
100
AcDbEntity
8
0
100
AcDbCircle
10
-46.120000000003074
20
269.38727657220534
30
0
40
1.6000000000000016
210
-2.7610131682735413e-30
220
1.9593430777002798e-44
230
1
0
CIRCLE
5
190
100
AcDbEntity
8
0
100
AcDbCircle
10
-52.880000000003335
20
269.38727657220483
30
-8.8817841970012523e-15
40
1.6000000000000016
210
-2.7610131682735413e-30
220
1.9593430777002798e-44
230
1
0
CIRCLE
5
191
100
AcDbEntity
8
0
100
AcDbCircle
10
-68.120000000003358
20
269.38727657220483
30
8.8817841970012523e-15
40
1.6000000000000016
210
-2.7610131682735413e-30
220
1.9593430777002798e-44
230
1
0
CIRCLE
5
192
100
AcDbEntity
8
0
100
AcDbCircle
10
-74.880000000003193
20
269.387276572205
30
0
40
1.6000000000000016
210
-3.1549460591048776e-30
220
-5.5511151231257839e-17
230
1
0
CIRCLE
5
193
100
AcDbEntity
8
0
100
AcDbCircle
10
-90.120000000003202
20
269.387276572205
30
0
40
1.6000000000000016
210
-3.1549460591048776e-30
220
-5.5511151231257839e-17
230
1
0
CIRCLE
5
194
100
AcDbEntity
8
0
100
AcDbCircle
10
-96.880000000003264
20
269.387276572205
30
1.7763568394002505e-14
40
1.6000000000000016
210
-2.7610131682735413e-30
220
1.9593430777002798e-44
230
1
0
CIRCLE
5
195
100
AcDbEntity
8
0
100
AcDbCircle
10
-112.12000000000327
20
269.38727657220505
30
8.8817841970012523e-15
40
1.6000000000000016
210
-3.5498740734945531e-30
220
2.5191553856146454e-44
230
1
0
CIRCLE
5
196
100
AcDbEntity
8
0
100
AcDbCircle
10
-195.58140000000324
20
269.37757657220482
30
8.8817841970012523e-15
40
1.6000000000000016
210
-3.5498740734945531e-30
220
2.5191553856146454e-44
230
1
0
CIRCLE
5
197
100
AcDbEntity
8
0
100
AcDbCircle
10
-195.58140000000321
20
247.7875765722049
30
1.7763568394002505e-14
40
1.6000000000000016
210
-2.7610131682735413e-30
220
1.9593430777002798e-44
230
1
0
CIRCLE
5
198
100
AcDbEntity
8
0
100
AcDbCircle
10
111.87999999999701
20
269.38727657220602
30
8.8817841970012523e-15
40
1.6000000000000016
210
-2.7610131682735413e-30
220
1.9593430777002798e-44
230
1
0
CIRCLE
5
199
100
AcDbEntity
8
0
100
AcDbCircle
10
127.11999999999698
20
269.38727657220608
30
1.7763568394002505e-14
40
1.6000000000000016
210
-2.7610131682735413e-30
220
1.9593430777002798e-44
230
1
0
CIRCLE
5
200
100
AcDbEntity
8
0
100
AcDbCircle
10
135.87999999999681
20
269.38727657220647
30
-8.8817841970012523e-15
40
1.6000000000000016
210
-2.7610131682735413e-30
220
1.9593430777002798e-44
230
1
0
CIRCLE
5
201
100
AcDbEntity
8
0
100
AcDbCircle
10
-163.93140000000346
20
254.13757663131858
30
3.5527136788005009e-14
40
3.2499999999999933
210
0
220
-0
230
1
0
CIRCLE
5
202
100
AcDbEntity
8
0
100
AcDbCircle
10
-139.93140000000369
20
254.13757663131895
30
-8.8817841970012523e-15
40
3.2499999999999933
210
0
220
-0
230
1
0
CIRCLE
5
203
100
AcDbEntity
8
0
100
AcDbCircle
10
-104.53000000000303
20
263.03727663131878
30
0
40
3.2499999999999933
210
0
220
-0
230
1
0
CIRCLE
5
204
100
AcDbEntity
8
0
100
AcDbCircle
10
-82.530000000003042
20
263.03727663131872
30
1.7763568394002505e-14
40
3.2500000000000022
210
4.9756177916947989e-34
220
-5.5511151231257827e-17
230
1
0
CIRCLE
5
205
100
AcDbEntity
8
0
100
AcDbCircle
10
-60.530000000003099
20
263.03727663131878
30
0
40
3.2500000000000022
210
4.9756177916947989e-34
220
-5.5511151231257827e-17
230
1
0
CIRCLE
5
206
100
AcDbEntity
8
0
100
AcDbCircle
10
-38.530000000002957
20
263.037276631319
30
2.6645352591003757e-14
40
3.2499999999999933
210
0
220
-0
230
1
0
CIRCLE
5
207
100
AcDbEntity
8
0
100
AcDbCircle
10
-16.530000000002911
20
263.03727663131906
30
1.7763568394002505e-14
40
3.2500000000000022
210
4.9756177916947989e-34
220
-5.5511151231257827e-17
230
1
0
CIRCLE
5
208
100
AcDbEntity
8
0
100
AcDbCircle
10
5.4699999999970785
20
263.03727663131946
30
1.7763568394002505e-14
40
3.2499999999999996
210
-3.1554436208840472e-30
220
2.2392492316574619e-44
230
1
0
CIRCLE
5
209
100
AcDbEntity
8
0
100
AcDbCircle
10
27.46999999999716
20
263.03727663131929
30
8.8817841970012523e-15
40
3.2500000000000022
210
4.9756177916947989e-34
220
-5.5511151231257827e-17
230
1
0
CIRCLE
5
210
100
AcDbEntity
8
0
100
AcDbCircle
10
49.46999999999715
20
263.03727663131974
30
2.6645352591003757e-14
40
3.2500000000000022
210
4.9756177916947989e-34
220
-5.5511151231257827e-17
230
1
0
CIRCLE
5
211
100
AcDbEntity
8
0
100
AcDbCircle
10
75.529999999997415
20
282.81727663131886
30
3.5527136788005009e-14
40
3.2500000000000022
210
4.9756177916947989e-34
220
-5.5511151231257827e-17
230
1
0
CIRCLE
5
212
100
AcDbEntity
8
0
100
AcDbCircle
10
75.46999999999727
20
263.03727663131934
30
-1.7763568394002505e-14
40
3.2499999999999933
210
0
220
-0
230
1
0
CIRCLE
5
213
100
AcDbEntity
8
0
100
AcDbCircle
10
97.529999999997472
20
282.81727662927813
30
0
40
3.2499999999999933
210
0
220
-0
230
1
0
CIRCLE
5
214
100
AcDbEntity
8
0
100
AcDbCircle
10
97.469999999997285
20
263.0372766313194
30
0
40
3.2499999999999933
210
0
220
-0
230
1
0
CIRCLE
5
215
100
AcDbEntity
8
0
100
AcDbCircle
10
119.52999999999759
20
282.81727663131539
30
0
40
3.2499999999999933
210
0
220
-0
230
1
0
ENDSEC
0
SECTION
2
OBJECTS
0
DICTIONARY
5
C
100
AcDbDictionary
3
ACAD_GROUP
350
D
3
ACAD_MLINESTYLE
350
17
0
DICTIONARY
5
D
100
AcDbDictionary
0
DICTIONARY
5
1A
330
C
100
AcDbDictionary
0
DICTIONARY
5
17
100
AcDbDictionary
0
ENDSEC
0
EOF
